<svg xmlns="http://www.w3.org/2000/svg" xmlns:xlink="http://www.w3.org/1999/xlink" x="0" y="0" width="737.5999755859375" height="207" style="
        width:737.5999755859375px;
        height:207px;
        background: transparent;
        fill: none;
">
        
        
        <svg xmlns="http://www.w3.org/2000/svg" class="role-diagram-draw-area"><g class="shapes-region" style="stroke: black; fill: none;"><g class="composite-shape"><path class="real" d=" M6,66.93 C6,38.36 29.16,15.2 57.73,15.2 C86.3,15.2 109.47,38.36 109.47,66.93 C109.47,95.5 86.3,118.67 57.73,118.67 C29.16,118.67 6,95.5 6,66.93 Z" style="stroke-width: 6px; stroke: rgb(255, 255, 255); stroke-opacity: 0.6; fill: rgb(0, 106, 159); fill-opacity: 0.7;"/></g><g class="composite-shape"><path class="real" d=" M62,114.8 C62,89.51 82.51,69 107.8,69 C133.09,69 153.6,89.51 153.6,114.8 C153.6,140.09 133.09,160.6 107.8,160.6 C82.51,160.6 62,140.09 62,114.8 Z" style="stroke-width: 6px; stroke: rgb(0, 106, 159); stroke-opacity: 1; fill: rgb(255, 255, 255); fill-opacity: 0.6;"/></g><g class="composite-shape"><path class="real" d=" M62,114.8 C62,89.51 82.51,69 107.8,69 C133.09,69 153.6,89.51 153.6,114.8 C153.6,140.09 133.09,160.6 107.8,160.6 C82.51,160.6 62,140.09 62,114.8 Z" style="stroke-width: 6px; stroke: rgb(255, 255, 255); stroke-opacity: 0.8; fill: rgb(0, 106, 159); fill-opacity: 0.6;"/></g><g class="composite-shape"><path class="real" d=" M117.5,152.1 C117.5,130.01 135.41,112.1 157.5,112.1 C179.59,112.1 197.5,130.01 197.5,152.1 C197.5,174.19 179.59,192.1 157.5,192.1 C135.41,192.1 117.5,174.19 117.5,152.1 Z" style="stroke-width: 6px; stroke: rgb(0, 106, 159); stroke-opacity: 1; fill: rgb(255, 255, 255); fill-opacity: 0.6;"/></g><g class="composite-shape"><path class="real" d=" M117.5,152.1 C117.5,130.01 135.41,112.1 157.5,112.1 C179.59,112.1 197.5,130.01 197.5,152.1 C197.5,174.19 179.59,192.1 157.5,192.1 C135.41,192.1 117.5,174.19 117.5,152.1 Z" style="stroke-width: 6px; stroke: rgb(255, 255, 255); stroke-opacity: 1; fill: rgb(0, 106, 159); fill-opacity: 0.49;"/></g><g/></g><g/><g/><g/></svg>
        <svg xmlns="http://www.w3.org/2000/svg" xmlns:xlink="http://www.w3.org/1999/xlink" width="736" height="205.40000915527344" style="width:736px;height:205.40000915527344px;font-family:Asana-Math, Asana;background:transparent;"><g><g><g><g transform="matrix(1,0,0,1,36.316680908203125,77.79740305175781)"><path transform="matrix(0.0599974,0,0,-0.0599974,0,0)" d="M94 0L499 0L499 66L379 65L184 65L184 694L94 694Z" stroke="rgb(255,255,255)" stroke-opacity="0.6" stroke-width="8" fill="rgb(255,255,255)" fill-opacity="0.6"></path></g></g></g></g><g><g><g><g transform="matrix(1,0,0,1,87.81668090820312,126.19801220703124)"><path transform="matrix(0.049998,0,0,-0.049998,0,0)" d="M94 0L555 0L555 72L509 72L487 71L293 71L269 70L184 70L184 329L514 329L514 390L184 390L184 627L219 626L459 626L484 625L541 625L541 691L94 691Z" stroke="rgb(255,255,255)" stroke-opacity="0.8" stroke-width="8" fill="rgb(255,255,255)" fill-opacity="0.8"></path></g></g></g></g><g><g><g><g transform="matrix(1,0,0,1,134.80001831054688,163.80051831054686)"><path transform="matrix(0.0400005,0,0,-0.0400005,0,0)" d="M95 0L173 0L173 624L212 544L486 0L611 0L611 694L533 694L533 70L494 150L220 694L95 694ZM735 34C810 -7 871 -11 905 -11C1039 -11 1068 72 1068 127C1068 192 1022 234 981 252C919 280 812 267 812 340C812 365 827 401 896 401C968 401 1000 383 1040 364L1051 430C996 453 961 461 905 461C769 461 741 382 741 329C741 259 801 220 845 206C876 196 919 191 941 184C961 178 997 158 997 120C997 93 979 52 904 52C823 52 775 86 747 102Z" stroke="rgb(255,255,255)" stroke-opacity="1" stroke-width="8" fill="rgb(255,255,255)" fill-opacity="1"></path></g></g></g></g><g><g><g><g transform="matrix(1,0,0,1,223.80001831054688,110.40000915527344)"><path transform="matrix(0.15,0,0,-0.15,0,0)" d="M95 0L185 0L185 289L302 289C313 289 324 288 335 288C505 288 582 401 582 493C582 558 546 617 485 655C434 687 385 694 331 694L95 694ZM182 347L182 638L315 638C470 638 501 544 501 493C501 435 463 347 315 347ZM653 445L840 18C844 10 845 6 845 1C845 -3 844 -8 841 -15C798 -119 790 -149 748 -149C731 -149 709 -143 675 -132L680 -197C704 -203 734 -205 753 -205C799 -205 828 -182 868 -90L1085 445L1010 445C944 281 879 118 877 50C868 107 868 134 732 445ZM1135 623L1277 623L1395 624L1395 0L1484 0L1484 624L1601 623L1743 623L1743 689L1135 689ZM1727 221C1727 85 1832 -11 1946 -11C2060 -11 2166 84 2166 220C2166 345 2074 461 1946 461C1828 461 1727 357 1727 221ZM1805 231C1805 352 1882 399 1946 399C2010 399 2087 353 2087 231C2087 106 2013 53 1946 53C1880 53 1805 105 1805 231ZM2250 0L2325 0L2325 206C2325 352 2436 386 2495 388L2495 455C2389 453 2336 385 2320 360L2320 450L2250 450ZM2546 223C2546 95 2640 -11 2763 -11C2832 -11 2881 11 2926 40L2921 107C2889 85 2842 53 2764 53C2680 53 2624 126 2624 223C2624 310 2668 397 2765 397C2844 397 2870 376 2909 351L2921 417C2860 452 2828 461 2766 461C2626 461 2546 339 2546 223ZM3035 0L3113 0L3113 240C3113 314 3138 394 3215 394C3313 394 3313 319 3313 281L3313 0L3391 0L3391 288C3391 349 3387 455 3254 455C3185 455 3142 422 3110 384L3110 722L3035 722Z" stroke="rgb(255,255,255)" stroke-opacity="1" stroke-width="8" fill="rgb(255,255,255)" fill-opacity="1"></path></g></g></g></g><g><g><g><g transform="matrix(1,0,0,1,472.3000183105469,187.3994938964844)"><path transform="matrix(0.0799995,0,0,-0.0799995,0,0)" d="M94 0L555 0L555 72L509 72L487 71L293 71L269 70L184 70L184 329L514 329L514 390L184 390L184 627L219 626L459 626L484 625L541 625L541 691L94 691ZM597 0L680 0L824 188L974 0L1057 0L857 229L857 230L1041 445L958 445L825 280L824 280L686 445L603 445L791 230L791 228ZM1139 -195L1217 -195L1217 46C1250 15 1293 -11 1352 -11C1449 -11 1538 83 1538 224C1538 343 1475 455 1380 455C1346 455 1278 448 1214 396L1214 445L1139 445ZM1217 126L1217 334C1223 341 1257 391 1323 391C1405 391 1459 310 1459 222C1459 116 1384 50 1314 50C1255 50 1217 102 1217 126ZM1656 0L1731 0L1731 722L1656 722ZM1858 113C1858 67 1888 -11 1972 -11C2082 -11 2137 34 2138 35L2138 0L2214 0L2214 305C2209 389 2143 461 2048 461C1985 461 1939 445 1891 417L1897 350C1930 373 1972 401 2047 401C2060 401 2086 400 2110 371C2135 341 2135 307 2136 279L2136 245C2033 244 1858 219 1858 113ZM1931 114C1931 177 2064 192 2136 193L2136 130C2136 65 2067 51 2024 51C1970 51 1931 78 1931 114ZM2375 0L2450 0L2450 445L2375 445ZM2368 590L2458 590L2458 679L2368 679ZM2613 0L2691 0L2691 240C2691 314 2716 394 2793 394C2891 394 2891 319 2891 281L2891 0L2969 0L2969 288C2969 358 2960 455 2832 455C2744 455 2700 398 2686 380L2686 450L2613 450ZM3167 722L3168 671L3175 175L3242 175L3251 722ZM3167 0L3251 0L3251 84L3167 84Z" stroke="rgb(255,255,255)" stroke-opacity="1" stroke-width="8" fill="rgb(255,255,255)" fill-opacity="1"></path></g></g></g></g></svg>
</svg>
